<svg width="222" height="256" viewBox="0 0 222 256" fill="none" xmlns="http://www.w3.org/2000/svg">
<mask id="mask0_136_43705" style="mask-type:alpha" maskUnits="userSpaceOnUse" x="0" y="0" width="222" height="256">
<mask id="path-2-inside-1_136_43705" fill="white">
<path d="M0 8C0 3.58172 3.58172 0 8 0H214C218.418 0 222 3.58172 222 8V248C222 252.418 218.418 256 214 256H8C3.58172 256 0 252.418 0 248V8Z"/>
</mask>
<g clip-path="url(#paint0_angular_136_43705_clip_path)" data-figma-skip-parse="true" mask="url(#path-2-inside-1_136_43705)"><g transform="matrix(0.0504545 0.128 -0.0355452 0.128 111 128)"><foreignObject x="-1893.6" y="-1893.6" width="3787.19" height="3787.19"><div xmlns="http://www.w3.org/1999/xhtml" style="background:conic-gradient(from 90deg,rgba(255, 255, 255, 0.7434) 0deg,rgba(255, 255, 255, 0.1672) 72.7333deg,rgba(255, 255, 255, 0.05) 137.838deg,rgba(255, 255, 255, 0.05) 222.017deg,rgba(255, 255, 255, 0.1666) 287.855deg,rgba(255, 255, 255, 0.75) 359.163deg,rgba(255, 255, 255, 0.7434) 360deg);height:100%;width:100%;opacity:1"></div></foreignObject></g></g><path d="M8 0V1H214V0V-1H8V0ZM222 8H221V248H222H223V8H222ZM214 256V255H8V256V257H214V256ZM0 248H1V8H0H-1V248H0ZM8 256V255C4.134 255 1 251.866 1 248H0H-1C-1 252.971 3.02943 257 8 257V256ZM222 248H221C221 251.866 217.866 255 214 255V256V257C218.971 257 223 252.971 223 248H222ZM214 0V1C217.866 1 221 4.13401 221 8H222H223C223 3.02944 218.971 -1 214 -1V0ZM8 0V-1C3.02944 -1 -1 3.02944 -1 8H0H1C1 4.13401 4.13401 1 8 1V0Z" data-figma-gradient-fill="{&#34;type&#34;:&#34;GRADIENT_ANGULAR&#34;,&#34;stops&#34;:[{&#34;color&#34;:{&#34;r&#34;:1.0,&#34;g&#34;:1.0,&#34;b&#34;:1.0,&#34;a&#34;:0.16718700528144836},&#34;position&#34;:0.20203690230846405},{&#34;color&#34;:{&#34;r&#34;:1.0,&#34;g&#34;:1.0,&#34;b&#34;:1.0,&#34;a&#34;:0.050000000745058060},&#34;position&#34;:0.38288280367851257},{&#34;color&#34;:{&#34;r&#34;:1.0,&#34;g&#34;:1.0,&#34;b&#34;:1.0,&#34;a&#34;:0.050000000745058060},&#34;position&#34;:0.61671400070190430},{&#34;color&#34;:{&#34;r&#34;:1.0,&#34;g&#34;:1.0,&#34;b&#34;:1.0,&#34;a&#34;:0.16656973958015442},&#34;position&#34;:0.79959648847579956},{&#34;color&#34;:{&#34;r&#34;:1.0,&#34;g&#34;:1.0,&#34;b&#34;:1.0,&#34;a&#34;:0.750},&#34;position&#34;:0.99767369031906128}],&#34;stopsVar&#34;:[{&#34;color&#34;:{&#34;r&#34;:1.0,&#34;g&#34;:1.0,&#34;b&#34;:1.0,&#34;a&#34;:0.16718700528144836},&#34;position&#34;:0.20203690230846405},{&#34;color&#34;:{&#34;r&#34;:1.0,&#34;g&#34;:1.0,&#34;b&#34;:1.0,&#34;a&#34;:0.050000000745058060},&#34;position&#34;:0.38288280367851257},{&#34;color&#34;:{&#34;r&#34;:1.0,&#34;g&#34;:1.0,&#34;b&#34;:1.0,&#34;a&#34;:0.050000000745058060},&#34;position&#34;:0.61671400070190430},{&#34;color&#34;:{&#34;r&#34;:1.0,&#34;g&#34;:1.0,&#34;b&#34;:1.0,&#34;a&#34;:0.16656973958015442},&#34;position&#34;:0.79959648847579956},{&#34;color&#34;:{&#34;r&#34;:1.0,&#34;g&#34;:1.0,&#34;b&#34;:1.0,&#34;a&#34;:0.750},&#34;position&#34;:0.99767369031906128}],&#34;transform&#34;:{&#34;m00&#34;:100.90909576416016,&#34;m01&#34;:-71.090332031250,&#34;m02&#34;:96.090621948242188,&#34;m10&#34;:256.0,&#34;m11&#34;:256.0,&#34;m12&#34;:-128.0},&#34;opacity&#34;:1.0,&#34;blendMode&#34;:&#34;NORMAL&#34;,&#34;visible&#34;:true}" mask="url(#path-2-inside-1_136_43705)"/>
</mask>
<g mask="url(#mask0_136_43705)">
<rect width="222" height="256" rx="8" fill="#7C3000"/>
</g>
<defs>
<clipPath id="paint0_angular_136_43705_clip_path"><path d="M8 0V1H214V0V-1H8V0ZM222 8H221V248H222H223V8H222ZM214 256V255H8V256V257H214V256ZM0 248H1V8H0H-1V248H0ZM8 256V255C4.134 255 1 251.866 1 248H0H-1C-1 252.971 3.02943 257 8 257V256ZM222 248H221C221 251.866 217.866 255 214 255V256V257C218.971 257 223 252.971 223 248H222ZM214 0V1C217.866 1 221 4.13401 221 8H222H223C223 3.02944 218.971 -1 214 -1V0ZM8 0V-1C3.02944 -1 -1 3.02944 -1 8H0H1C1 4.13401 4.13401 1 8 1V0Z"/></clipPath></defs>
</svg>
