<svg width="20" height="20" viewBox="0 0 20 20" fill="none" xmlns="http://www.w3.org/2000/svg">
<path d="M13.7497 6.01017e-07C14.8246 6.48003e-07 15.7414 0.678295 16.0946 1.63025C16.1951 1.90099 16.2494 2.19409 16.2494 2.49978L14.9996 2.49978C14.9994 1.80954 14.4399 1.24989 13.7497 1.24989L2.49978 1.24989C1.80953 1.24991 1.25003 1.80956 1.24989 2.49978L1.24989 13.7497C1.24989 14.44 1.80945 14.9995 2.49978 14.9996L2.49978 16.2503C2.19402 16.2503 1.90105 16.1952 1.63025 16.0946C0.678238 15.7414 2.26223e-07 14.8246 2.73211e-07 13.7497L7.64959e-07 2.49978C0.000138018 1.1192 1.11918 2.51981e-05 2.49978 1.09269e-07L13.7497 6.01017e-07Z" fill="url(#paint0_linear_136_44176)"/>
<path fill-rule="evenodd" clip-rule="evenodd" d="M17.692 3.74951C18.9664 3.74953 19.9997 4.78295 19.9998 6.05734L19.9998 17.692C19.9998 18.9664 18.9664 19.9998 17.692 19.9998L6.05734 19.9998C4.78285 19.9998 3.74951 18.9664 3.74951 17.692L3.74951 6.05734C3.74963 4.78295 4.78293 3.74953 6.05734 3.74951L17.692 3.74951ZM15.6416 10.642L16.6571 9.62833L16.6571 13.179L13.1064 13.179L14.1201 12.1635L10.5704 8.61373L12.0918 7.09228L15.6416 10.642ZM13.478 15.4346L9.92819 11.8848L10.9419 10.8694L7.39126 10.8694L7.39126 14.42L8.40674 13.4072L11.9565 16.9561L13.478 15.4346Z" fill="url(#paint1_linear_136_44176)"/>
<defs>
<linearGradient id="paint0_linear_136_44176" x1="8.12472" y1="3.55143e-07" x2="8.12472" y2="16.2503" gradientUnits="userSpaceOnUse">
<stop stop-color="#D9D9D9"/>
<stop offset="1" stop-color="#A8A8A8"/>
</linearGradient>
<linearGradient id="paint1_linear_136_44176" x1="19.9998" y1="19.9998" x2="6.79645" y2="6.79645" gradientUnits="userSpaceOnUse">
<stop stop-color="#0F62FE"/>
<stop offset="1" stop-color="#1DAAFB"/>
</linearGradient>
</defs>
</svg>
